<?xml version="1.0" standalone="no"?>
<!DOCTYPE svg PUBLIC "-//W3C//DTD SVG 20010904//EN"
 "http://www.w3.org/TR/2001/REC-SVG-20010904/DTD/svg10.dtd">
<svg version="1.0" xmlns="http://www.w3.org/2000/svg"
 width="16.000000pt" height="16.000000pt" viewBox="0 0 16.000000 16.000000"
 preserveAspectRatio="xMidYMid meet">
<metadata>
Created by potrace 1.11, written by Peter Selinger 2001-2013
</metadata>
<g transform="translate(0.000000,16.000000) scale(0.006154,-0.006154)"
fill="#000000" stroke="none">
<path d="M1131 2024 c-80 -17 -195 -70 -277 -129 -207 -148 -329 -431 -294
-686 19 -137 57 -234 136 -345 95 -134 246 -239 409 -285 102 -29 266 -31 370
-5 252 63 448 249 535 506 34 100 39 279 11 390 -68 275 -274 481 -545 550
-94 24 -247 26 -345 4z m451 -311 c9 -10 21 -35 27 -55 11 -34 15 -37 40 -32
24 5 30 1 44 -29 31 -64 20 -110 -28 -119 -11 -2 -20 -9 -19 -16 1 -6 2 -28 3
-47 1 -35 2 -36 35 -30 41 8 56 -12 59 -74 2 -49 -16 -71 -58 -71 -33 0 -33 0
-42 -62 -8 -60 -9 -63 -38 -66 -45 -4 -66 17 -68 66 -2 39 -4 42 -29 42 -29 0
-34 -10 -40 -75 -3 -27 -7 -30 -40 -33 -42 -4 -68 23 -68 70 0 25 -3 28 -25
22 -20 -5 -26 -1 -35 21 -21 55 -2 95 46 95 21 0 24 4 24 40 0 22 -1 40 -3 40
-1 0 -17 -4 -35 -9 -28 -9 -34 -7 -48 14 -26 40 -15 77 29 99 31 15 38 22 33
40 -3 11 -9 37 -12 56 -5 32 -3 37 21 48 14 7 32 12 39 12 18 0 46 -33 55 -66
9 -33 21 -39 45 -21 17 12 17 17 2 72 -8 33 -14 60 -13 61 41 28 78 31 99 7z"/>
<path d="M1493 1433 c-8 -2 -13 -22 -13 -44 0 -35 3 -39 24 -39 32 0 39 13 32
56 -7 32 -16 38 -43 27z"/>
</g>
</svg>
