<?xml version="1.0" standalone="no"?>
<!DOCTYPE svg PUBLIC "-//W3C//DTD SVG 20010904//EN"
 "http://www.w3.org/TR/2001/REC-SVG-20010904/DTD/svg10.dtd">
<svg version="1.0" xmlns="http://www.w3.org/2000/svg"
 width="16.000000pt" height="16.000000pt" viewBox="0 0 16.000000 16.000000"
 preserveAspectRatio="xMidYMid meet">
<metadata>
Created by potrace 1.11, written by Peter Selinger 2001-2013
</metadata>
<g transform="translate(0.000000,16.000000) scale(0.006154,-0.006154)"
fill="#000000" stroke="none">
<path d="M0 1300 l0 -1300 1300 0 1300 0 0 1300 0 1300 -1300 0 -1300 0 0
-1300z m1544 830 c177 -21 302 -86 350 -182 15 -31 26 -69 26 -93 0 -51 -41
-135 -82 -170 l-30 -26 -52 29 c-119 67 -225 89 -348 72 -182 -26 -296 -144
-328 -342 -51 -314 89 -543 356 -581 102 -14 199 1 309 48 l89 38 31 -36 c38
-44 55 -96 55 -167 0 -172 -214 -275 -535 -256 -331 19 -575 163 -696 412 -57
118 -80 215 -86 374 -11 285 64 500 232 665 88 86 172 136 293 175 144 47 259
58 416 40z"/>
</g>
</svg>
